<svg xmlns="http://www.w3.org/2000/svg" width="314.012" height="119.611" viewBox="0 0 314.012 119.611">
  <g id="Group_2394" data-name="Group 2394" transform="translate(-264.268 -380.696)">
    <rect id="Rectangle_2081" data-name="Rectangle 2081" width="60.157" height="7.349" transform="translate(264.268 492.958)" fill="#1a1719"/>
    <rect id="Rectangle_2082" data-name="Rectangle 2082" width="161.218" height="7.342" transform="translate(417.062 380.696)" fill="#1a1719"/>
    <g id="Group_2322" data-name="Group 2322" transform="translate(294.346 409.386)">
      <path id="Path_2124" data-name="Path 2124" d="M280.311,435.786q0,3.891,1.686,5.534t5.23,1.641c2.359,0,4.106-.543,5.226-1.641s1.686-2.94,1.686-5.534V402.6q0-3.885-1.686-5.534c-1.12-1.094-2.867-1.641-5.226-1.641s-4.106.547-5.23,1.641-1.686,2.943-1.686,5.534Zm-8.124-34.744q0-12.79,14.695-12.792h.691q14.692,0,14.691,12.792v36.3q0,12.8-14.691,12.792h-.691q-14.7,0-14.695-12.792Z" transform="translate(-272.187 -388.25)" fill="#1a1719"/>
      <path id="Path_2125" data-name="Path 2125" d="M305.006,426.549q0-5.44-6.05-5.442h-7.349v20.741h7.349q6.05,0,6.05-6.225Zm-13.4-31.026V414.19h7q6.045,0,6.05-5.446v-7q0-6.215-6.05-6.217Zm21.178,12.442a12.3,12.3,0,0,1-1.6,6.354,6.505,6.505,0,0,1-5.142,3.156q7.087,1.122,7.087,9.59V437a10.748,10.748,0,0,1-3.847,8.732q-3.845,3.2-10.672,3.2H283.483v-60.5h15.3q6.74,0,10.372,3.156a11.005,11.005,0,0,1,3.631,8.77Z" transform="translate(-240.581 -387.741)" fill="#1a1719"/>
    </g>
    <path id="Path_2126" data-name="Path 2126" d="M330.255,441.59v7.345H304.5v-60.5h8.124V441.59Z" transform="translate(112.563 21.646)" fill="#1a1719"/>
    <path id="Path_2127" data-name="Path 2127" d="M320.3,448.934H294.546v-60.5h25.5v7.174H302.67v19.017H315.9v7.258H302.67V441.76H320.3Z" transform="translate(84.719 21.645)" fill="#1a1719"/>
    <rect id="Rectangle_2083" data-name="Rectangle 2083" width="8.124" height="60.502" transform="translate(454.237 410.078)" fill="#1a1719"/>
    <g id="Group_2323" data-name="Group 2323" transform="translate(474.892 409.382)">
      <path id="Path_2128" data-name="Path 2128" d="M348.593,402.081H340.64q0-6.745-6.483-6.741t-6.479,6.741v4.147a6.791,6.791,0,0,0,.991,3.98,11.83,11.83,0,0,0,3.76,2.936l7.866,4.322a21.654,21.654,0,0,1,6.4,5.01,10.339,10.339,0,0,1,2.074,6.658v8.382q0,12.619-14.432,12.617h-.175q-7.087,0-10.76-2.978t-3.673-9.639v-1.383h7.953q0,6.916,6.567,6.916t6.571-6.916v-4.755a7.091,7.091,0,0,0-1.041-4.147,11.513,11.513,0,0,0-3.8-3.023l-7.778-4.322a22.344,22.344,0,0,1-6.525-5.059,10.224,10.224,0,0,1-1.945-6.521V400.7q0-6.312,3.889-9.377t10.46-3.073h.171q6.569,0,10.46,3.073t3.889,9.377Z" transform="translate(-319.724 -388.249)" fill="#1a1719"/>
    </g>
    <rect id="Rectangle_2084" data-name="Rectangle 2084" width="8.124" height="60.502" transform="translate(516.224 410.078)" fill="#1a1719"/>
    <path id="Path_2129" data-name="Path 2129" d="M356.6,388.432h-8.3l-15.557,30.251L348.3,448.935h8.3l-15.557-30.251Z" transform="translate(191.602 21.646)" fill="#1a1719"/>
  </g>
</svg>
